{"title":"Rabba Mai Kya Karoon (2013) WebRip-Xvid [480p] IcTv Hindi","uid":8941849,"size":2252223887,"categoryP":"video","categoryS":"movies","magnet":"?xt=urn:btih:9337470cba0dcabffad5dbe4625912ed7fb4a384&amp;dn=Rabba+Mai+Kya+Karoon+%282013%29+WebRip-Xvid+%5B480p%5D+IcTv+Hindi&amp;tr=udp%3A%2F%2Ftracker.openbittorrent.com%3A80&amp;tr=udp%3A%2F%2Fopen.demonii.com%3A1337&amp;tr=udp%3A%2F%2Ftracker.coppersurfer.tk%3A6969&amp;tr=udp%3A%2F%2Fexodus.desync.com%3A6969","seeders":1,"leechers":0,"uploader":"SJonam","files":1,"time":1379636442,"description":" &lt;a href=&quot;http://s18.postimg.org/q1xcnecvd/9999999999.jpg&quot; rel=&quot;nofollow&quot; target=&quot;_NEW&quot;&gt;http://s18.postimg.org/q1xcnecvd/9999999999.jpg&lt;/a&gt; &lt;a href=&quot;\nhttp://i.imgur.com/lJOgAo2.png&quot; rel=&quot;nofollow&quot; target=&quot;_NEW&quot;&gt;\nhttp://i.imgur.com/lJOgAo2.png&lt;/a&gt; &lt;a href=&quot;\nhttp://img24.imageshack.us/img24/6356/f5cj.jpg&quot; rel=&quot;nofollow&quot; target=&quot;_NEW&quot;&gt;\nhttp://img24.imageshack.us/img24/6356/f5cj.jpg&lt;/a&gt; &lt;a href=&quot;\nhttp://t1.someimage.com/Qr3rEuD.jpg&quot; rel=&quot;nofollow&quot; target=&quot;_NEW&quot;&gt;\nhttp://t1.someimage.com/Qr3rEuD.jpg&lt;/a&gt; &lt;a href=&quot;\nhttp://t1.someimage.com/fNgIv1b.jpg&quot; rel=&quot;nofollow&quot; target=&quot;_NEW&quot;&gt;\nhttp://t1.someimage.com/fNgIv1b.jpg&lt;/a&gt; &lt;a href=&quot;\nhttp://t1.someimage.com/Jifj0yC.jpg&quot; rel=&quot;nofollow&quot; target=&quot;_NEW&quot;&gt;\nhttp://t1.someimage.com/Jifj0yC.jpg&lt;/a&gt; &lt;a href=&quot;\nhttp://t1.someimage.com/PYQp7Vy.jpg&quot; rel=&quot;nofollow&quot; target=&quot;_NEW&quot;&gt;\nhttp://t1.someimage.com/PYQp7Vy.jpg&lt;/a&gt; &lt;a href=&quot;\nhttp://t1.someimage.com/WWNRP08.jpg&quot; rel=&quot;nofollow&quot; target=&quot;_NEW&quot;&gt;\nhttp://t1.someimage.com/WWNRP08.jpg&lt;/a&gt;\n\nMedia Info - \nGeneral\nComplete name : Rabba Mai Kya Karoon (2013) WebRip-Xvid -[480p] Team IcTv Exclusive..mkv\nFormat : Matroska\nFormat version : Version 2\nFile size : 2.10 GiB\nDuration : 1h 55mn\nOverall bit rate : 2 611 Kbps\nEncoded date : UTC 2013-09-19 16:06:46\nWriting application : mkvmerge v6.2.0 ('Promised Land') built on Apr 28 2013 12:22:01\nWriting library : libebml v1.3.0 + libmatroska v1.4.0\n\nVideo\nFormat : MPEG-4 Visual\nFormat profile : Advanced Simple@L5\nFormat settings, BVOP : Yes\nFormat settings, QPel : No\nFormat settings, GMC : No warppoints\nFormat settings, Matrix : Default (H.263)\nCodec ID : V_MPEG4/ISO/ASP\nCodec ID/Info : Advanced Simple Profile\nDuration : 1h 55mn\nBit rate : 2 431 Kbps\nWidth : 880 pixels\nHeight : 368 pixels\nDisplay aspect ratio : 2.40:1\nFrame rate : 25.000 fps\nColor space : YUV\nChroma subsampling : 4:2:0\nBit depth : 8 bits\nScan type : Progressive\nCompression mode : Lossy\nBits/(Pixel*Frame) : 0.300\nStream size : 1.95 GiB (93%)\nWriting library : XviD 1.2.1 (UTC 2008-12-04)\nLanguage : English\nDefault : Yes\nForced : No\n\nAudio\nFormat : MPEG Audio\nFormat version : Version 1\nFormat profile : Layer 3\nMode : Joint stereo\nCodec ID : A_MPEG/L3\nCodec ID/Hint : MP3\nDuration : 1h 55mn\nBit rate mode : Constant\nBit rate : 128 Kbps\nChannel(s) : 2 channels\nSampling rate : 44.1 KHz\nCompression mode : Lossy\nStream size : 105 MiB (5%)\nWriting library : LAME3.99r\nEncoding settings : -m j -V 4 -q 2 -lowpass 17 -b 128\nDefault : Yes\nForced : No\n\nSample - http://www.multiupload.nl/07LI5Z0A0S\n\nRipper : Lottery\n\nSeeding 24x7... Extreme Seeding...\n\n\nEnjoy ICTV Exclusive Release ;)","torrent":{"xt":"urn:btih:9337470cba0dcabffad5dbe4625912ed7fb4a384","amp;dn":"Rabba+Mai+Kya+Karoon+%282013%29+WebRip-Xvid+%5B480p%5D+IcTv+Hindi","amp;tr":["udp%3A%2F%2Ftracker.openbittorrent.com%3A80","udp%3A%2F%2Fopen.demonii.com%3A1337","udp%3A%2F%2Ftracker.coppersurfer.tk%3A6969","udp%3A%2F%2Fexodus.desync.com%3A6969"],"infoHash":"9337470cba0dcabffad5dbe4625912ed7fb4a384","infoHashBuffer":{"type":"Buffer","data":[147,55,71,12,186,13,202,191,250,213,219,228,98,89,18,237,127,180,163,132]},"announce":[],"urlList":[]}}